<?xml version="1.0" encoding="iso-8859-1"?>
<!-- Generator: Adobe Illustrator 19.0.0, SVG Export Plug-In . SVG Version: 6.00 Build 0)  -->
<svg version="1.1" id="Capa_1" xmlns="http://www.w3.org/2000/svg" xmlns:xlink="http://www.w3.org/1999/xlink" x="0px" y="0px"
	 viewBox="0 0 512 512" style="enable-background: new 0 0 512 512" xml:space="preserve">
<circle style="fill: #ffe17d" cx="261" cy="240" r="256"/>
<path style="fill: #7d5046" d="M 169.3 239.5 L 169.3 239.5 c -11.4 0 -20.6 -9.2 -20.6 -20.6 v -16.5 c 0 -11.4 9.2 -20.6 20.6 -20.6 l 0 0 c 11.4 0 20.6 9.2 20.6 20.6 v 16.5 C 189.9 230.2 180.7 239.5 169.3 239.5 z"/>
<path style="fill: #9c6846" d="M 166.3 191.7 c -1.4 0 -2.8 0.1 -4.1 0.4 v 28.5 c 0 6.8 5.5 12.4 12.4 12.4 s 12.4 -5.5 12.4 -12.4 v -8.3 C 186.9 200.9 177.7 191.7 166.3 191.7 z"/>
<path style="fill: #7d5046" d="M 342.7 239.5 L 342.7 239.5 c -11.4 0 -20.6 -9.2 -20.6 -20.6 v -16.5 c 0 -11.4 9.2 -20.6 20.6 -20.6 l 0 0 c 11.4 0 20.6 9.2 20.6 20.6 v 16.5 C 363.4 230.2 354.1 239.5 342.7 239.5 z"/>
<path style="fill: #9c6846" d="M 342.7 181.7 c -1.4 0 -2.8 0.1 -4.1 0.4 v 28.5 c 0 6.8 5.5 12.4 12.4 12.4 s 12.4 -5.5 12.4 -12.4 v -8.3 C 363.4 190.9 354.1 181.7 342.7 181.7 z"/>
<path style="fill: #ffd164" d="M 306.2 458.8 c -141.4 0 -256 -114.6 -256 -256 c 0 -61.2 21.5 -117.4 57.4 -161.5 C 49.9 88.3 13 159.8 13 240 c 0 141.4 114.6 256 256 256 c 80.2 0 151.7 -36.9 198.6 -94.5 C 423.6 437.3 367.4 458.8 306.2 458.8 z"/>
<path style="fill: #9c6846" d="M 256 404.6 L 256 404.6 c -22.8 0 -41.3 -18.5 -41.3 -41.3 v -24.8 c 0 -22.8 18.5 -41.3 41.3 -41.3 l 0 0 c 22.8 0 41.3 18.5 41.3 41.3 v 24.8 C 297.3 386.2 278.8 404.6 256 404.6 z"/>
<path style="fill: #7d5046" d="M 256 297.3 c -22.8 0 -41.3 18.5 -41.3 41.3 v 24.8 c 0 1.4 0.3 2.8 0.4 4.1 c 2.1 -20.8 19.5 -37.2 40.9 -37.2 s 38.8 16.3 40.9 37.2 c 0.1 -1.4 0.4 -2.7 0.4 -4.1 V 338.6 C 297.3 315.8 278.8 297.3 256 297.3 z"/>
<g>
</g>
<g>
</g>
<g>
</g>
<g>
</g>
<g>
</g>
<g>
</g>
<g>
</g>
<g>
</g>
<g>
</g>
<g>
</g>
<g>
</g>
<g>
</g>
<g>
</g>
<g>
</g>
<g>
</g>
</svg>
