<?xml version="1.0" encoding="iso-8859-1"?>
<!-- Generator: Adobe Illustrator 19.0.0, SVG Export Plug-In . SVG Version: 6.00 Build 0)  -->
<svg version="1.1" id="Capa_1" xmlns="http://www.w3.org/2000/svg" xmlns:xlink="http://www.w3.org/1999/xlink" x="0px" y="0px"
	 viewBox="0 0 512 512" style="enable-background: new 0 0 512 512" xml:space="preserve">
<circle style="fill: #ffe17d" cx="250.9" cy="261.1" r="250.9"/>
<path style="fill: #ffd164" d="M 287.4 475.6 c -138.6 0 -250.9 -112.3 -250.9 -250.9 c 0 -60 21.1 -115.1 56.2 -158.3 C 36.1 112.4 0 182.5 0 261.1 C 0 399.6 112.3 512 250.9 512 c 78.6 0 148.7 -36.1 194.7 -92.7 C 402.5 454.5 347.4 475.6 287.4 475.6 z"/>
<g>
	<path style="fill: #aa7346" d="M 161.9 271.2 c -15.4 0 -30.1 -7.3 -40.3 -20 c -3.5 -4.4 -2.8 -10.7 1.5 -14.2 c 4.3 -3.5 10.7 -2.8 14.2 1.5 c 6.4 8 15.1 12.4 24.5 12.4 s 18.1 -4.4 24.5 -12.4 c 3.5 -4.4 9.9 -5.1 14.2 -1.5 c 4.4 3.5 5.1 9.9 1.5 14.2 C 192 263.9 177.3 271.2 161.9 271.2 z"/>
	<path style="fill: #aa7346" d="M 340 271.2 c -15.4 0 -30.1 -7.3 -40.3 -20 c -3.5 -4.4 -2.8 -10.7 1.5 -14.2 c 4.4 -3.5 10.7 -2.8 14.2 1.5 c 6.4 8 15.1 12.4 24.5 12.4 s 18.1 -4.4 24.5 -12.4 c 3.5 -4.4 9.9 -5.1 14.2 -1.5 c 4.4 3.5 5.1 9.9 1.5 14.2 C 370.1 263.9 355.4 271.2 340 271.2 z"/>
</g>
<path style="fill: #9c6846" d="M 267.1 342 L 267.1 342 c -13.4 0 -24.3 10.9 -24.3 24.3 v 8.1 c 0 13.4 10.9 24.3 24.3 24.3 l 0 0 c 13.4 0 24.3 -10.9 24.3 -24.3 v -8.1 C 291.4 352.9 280.5 342 267.1 342 z"/>
<g>
	<path style="fill: #8cb4eb" d="M 340 121.4 h -13.5 l 21.9 -32.8 c 2.1 -3.1 2.3 -7.1 0.5 -10.4 c -1.8 -3.3 -5.2 -5.3 -8.9 -5.3 h -32.4 c -5.6 0 -10.1 4.5 -10.1 10.1 c 0 5.6 4.5 10.1 10.1 10.1 h 13.5 l -21.9 32.8 c -2.1 3.1 -2.3 7.1 -0.5 10.4 c 1.8 3.3 5.2 5.3 8.9 5.3 h 32.4 c 5.6 0 10.1 -4.5 10.1 -10.1 C 350.1 126 345.6 121.4 340 121.4 z"/>
	<path style="fill: #8cb4eb" d="M 501.9 48.6 h -13.5 L 510.3 15.7 c 2.1 -3.1 2.3 -7.1 0.5 -10.4 C 509 2.1 505.6 0 501.9 0 h -32.4 c -5.6 0 -10.1 4.5 -10.1 10.1 s 4.5 10.1 10.1 10.1 h 13.5 l -21.9 32.8 c -2.1 3.1 -2.3 7.1 -0.5 10.4 c 1.8 3.3 5.2 5.3 8.9 5.3 h 32.4 c 5.6 0 10.1 -4.5 10.1 -10.1 S 507.5 48.6 501.9 48.6 z"/>
	<path style="fill: #8cb4eb" d="M 447.9 97.1 h -56.6 l 54.3 -81.4 c 2.1 -3.1 2.3 -7.1 0.5 -10.4 C 444.3 2.1 440.9 0 437.1 0 h -64.8 c -5.6 0 -10.1 4.5 -10.1 10.1 s 4.5 10.1 10.1 10.1 h 45.9 l -54.3 81.4 c -2.1 3.1 -2.3 7.1 -0.5 10.4 c 1.8 3.3 5.2 5.3 8.9 5.3 h 75.5 c 5.6 0 10.1 -4.5 10.1 -10.1 C 458 101.7 453.5 97.1 447.9 97.1 z"/>
</g>
<path style="fill: #7d5046" d="M 267.1 342 c -13.4 0 -24.3 10.9 -24.3 24.3 v 8.1 c 0 2.9 0.6 5.6 1.5 8.1 c 3.3 -9.4 12.2 -16.2 22.8 -16.2 s 19.5 6.8 22.8 16.2 c 0.9 -2.5 1.5 -5.2 1.5 -8.1 v -8.1 C 291.4 352.9 280.5 342 267.1 342 z"/>
<g>
</g>
<g>
</g>
<g>
</g>
<g>
</g>
<g>
</g>
<g>
</g>
<g>
</g>
<g>
</g>
<g>
</g>
<g>
</g>
<g>
</g>
<g>
</g>
<g>
</g>
<g>
</g>
<g>
</g>
</svg>
